<svg xmlns="http://www.w3.org/2000/svg" version="1.1" xmlns:xlink="http://www.w3.org/1999/xlink" xmlns:svgjs="http://svgjs.dev/svgjs" width="1000" height="1000" viewBox="0 0 1000 1000"><rect width="1000" height="1000" fill="#000000"></rect><g transform="matrix(0.7,0,0,0.7,150.55692526882467,201.34202429149798)"><svg viewBox="0 0 289 247" data-background-color="#444444" preserveAspectRatio="xMidYMid meet" height="854" width="1000" xmlns="http://www.w3.org/2000/svg" xmlns:xlink="http://www.w3.org/1999/xlink"><g id="tight-bounds" transform="matrix(1,0,0,1,-0.22993057527190786,-0.09999999999999432)"><svg viewBox="0 0 289.45985464587295 247.2" height="247.2" width="289.45985464587295"><g><svg viewBox="0 0 395.52 337.77583464765974" height="247.2" width="289.45985464587295"><g transform="matrix(1,0,0,1,0,246.99617816773338)"><svg viewBox="0 0 395.52 90.77965647992636" height="90.77965647992636" width="395.52"><g id="textblocktransform"><svg viewBox="0 0 395.52 90.77965647992636" height="90.77965647992636" width="395.52" id="textblock"><g><svg viewBox="0 0 395.52 48.96220892774965" height="48.96220892774965" width="395.52"><g transform="matrix(1,0,0,1,0,0)"><svg width="395.52" viewBox="5 -39.54999923706055 325.92999267578125 40.349998474121094" height="48.96220892774965" data-palette-color="#ffffff"><path d="M7.6 0L7.6 0Q6.5 0 5.75-0.75 5-1.5 5-2.6L5-2.6 5-36.45Q5-37.6 5.75-38.33 6.5-39.05 7.6-39.05L7.6-39.05Q9.1-39.05 9.9-37.65L9.9-37.65 25.55-6.3 23.95-6.3 39.2-37.65Q40-39.05 41.5-39.05L41.5-39.05Q42.6-39.05 43.35-38.33 44.1-37.6 44.1-36.45L44.1-36.45 44.1-2.6Q44.1-1.5 43.33-0.75 42.55 0 41.5 0L41.5 0Q40.4 0 39.65-0.75 38.9-1.5 38.9-2.6L38.9-2.6 38.9-29.25 39.9-29.5 26.8-2.8Q25.95-1.5 24.55-1.5L24.55-1.5Q22.9-1.5 22.15-3.05L22.15-3.05 9.2-29 10.2-29.25 10.2-2.6Q10.2-1.5 9.45-0.75 8.7 0 7.6 0ZM56.7 0L56.7 0Q55.6 0 54.85-0.75 54.1-1.5 54.1-2.6L54.1-2.6 54.1-36.45Q54.1-37.6 54.85-38.33 55.6-39.05 56.7-39.05L56.7-39.05Q57.85-39.05 58.57-38.33 59.3-37.6 59.3-36.45L59.3-36.45 59.3-2.6Q59.3-1.5 58.57-0.75 57.85 0 56.7 0ZM71.84 0L71.84 0Q70.75 0 70.02-0.75 69.3-1.5 69.3-2.6L69.3-2.6 69.3-36.45Q69.3-37.6 70.02-38.33 70.75-39.05 71.84-39.05L71.84-39.05Q73.05-39.05 73.84-38.1L73.84-38.1 95.65-9.1 95.65-36.45Q95.65-37.6 96.4-38.33 97.15-39.05 98.25-39.05L98.25-39.05Q99.4-39.05 100.09-38.33 100.8-37.6 100.8-36.45L100.8-36.45 100.8-2.6Q100.8-1.5 100.09-0.75 99.4 0 98.25 0L98.25 0Q97.75 0 97.17-0.23 96.59-0.45 96.25-0.9L96.25-0.9 74.45-29.9 74.45-2.6Q74.45-1.5 73.72-0.75 73 0 71.84 0ZM128.29 0.5L128.29 0.5Q124.24 0.5 120.72-1.03 117.19-2.55 114.57-5.28 111.94-8 110.47-11.65 108.99-15.3 108.99-19.55L108.99-19.55Q108.99-23.75 110.47-27.38 111.94-31 114.57-33.73 117.19-36.45 120.69-38 124.19-39.55 128.29-39.55L128.29-39.55Q132.14-39.55 134.92-38.55 137.69-37.55 140.49-35.25L140.49-35.25Q140.89-34.95 141.12-34.63 141.34-34.3 141.42-33.98 141.49-33.65 141.49-33.2L141.49-33.2Q141.49-32.25 140.82-31.6 140.14-30.95 139.17-30.9 138.19-30.85 137.34-31.55L137.34-31.55Q135.49-33.15 133.52-34 131.54-34.85 128.29-34.85L128.29-34.85Q125.34-34.85 122.74-33.65 120.14-32.45 118.17-30.35 116.19-28.25 115.09-25.48 113.99-22.7 113.99-19.55L113.99-19.55Q113.99-16.35 115.09-13.58 116.19-10.8 118.17-8.7 120.14-6.6 122.74-5.43 125.34-4.25 128.29-4.25L128.29-4.25Q130.84-4.25 133.12-5.13 135.39-6 137.49-7.55L137.49-7.55Q138.39-8.2 139.27-8.13 140.14-8.05 140.74-7.43 141.34-6.8 141.34-5.7L141.34-5.7Q141.34-5.2 141.17-4.73 140.99-4.25 140.54-3.85L140.54-3.85Q137.89-1.65 134.79-0.58 131.69 0.5 128.29 0.5ZM141.34-17.65L141.34-5.7 136.34-6.7 136.34-15.65 129.44-15.65Q128.34-15.65 127.59-16.3 126.84-16.95 126.84-17.95L126.84-17.95Q126.84-18.95 127.59-19.6 128.34-20.25 129.44-20.25L129.44-20.25 138.79-20.25Q139.94-20.25 140.64-19.53 141.34-18.8 141.34-17.65L141.34-17.65ZM172.89 0L152.19 0Q151.09 0 150.37-0.75 149.64-1.5 149.64-2.6L149.64-2.6 149.64-36.45Q149.64-37.55 150.39-38.3 151.14-39.05 152.19-39.05L152.19-39.05Q153.29-39.05 154.04-38.3 154.79-37.55 154.79-36.45L154.79-36.45 154.79-5.2 172.89-5.2Q173.99-5.2 174.74-4.45 175.49-3.7 175.49-2.6L175.49-2.6Q175.49-1.5 174.74-0.75 173.99 0 172.89 0L172.89 0ZM206.94 0L184.34 0Q183.24 0 182.49-0.75 181.74-1.5 181.74-2.6L181.74-2.6 181.74-36.45Q181.74-37.6 182.49-38.33 183.24-39.05 184.34-39.05L184.34-39.05 206.94-39.05Q208.09-39.05 208.79-38.38 209.49-37.7 209.49-36.6L209.49-36.6Q209.49-35.55 208.79-34.9 208.09-34.25 206.94-34.25L206.94-34.25 186.94-34.25 186.94-22.1 201.29-22.1Q202.44-22.1 203.14-21.43 203.84-20.75 203.84-19.7L203.84-19.7Q203.84-18.65 203.14-17.98 202.44-17.3 201.29-17.3L201.29-17.3 186.94-17.3 186.94-4.8 206.94-4.8Q208.09-4.8 208.79-4.15 209.49-3.5 209.49-2.45L209.49-2.45Q209.49-1.35 208.79-0.68 208.09 0 206.94 0L206.94 0ZM219.34 0L219.34 0Q218.24 0 217.49-0.75 216.74-1.5 216.74-2.6L216.74-2.6 216.74-36.45Q216.74-37.6 217.49-38.33 218.24-39.05 219.34-39.05L219.34-39.05Q220.49-39.05 221.21-38.33 221.94-37.6 221.94-36.45L221.94-36.45 221.94-22.1 245.14-22.1 245.14-36.45Q245.14-37.6 245.89-38.33 246.64-39.05 247.74-39.05L247.74-39.05Q248.89-39.05 249.59-38.33 250.29-37.6 250.29-36.45L250.29-36.45 250.29-2.6Q250.29-1.5 249.59-0.75 248.89 0 247.74 0L247.74 0Q246.64 0 245.89-0.75 245.14-1.5 245.14-2.6L245.14-2.6 245.14-17.5 221.94-17.5 221.94-2.6Q221.94-1.5 221.21-0.75 220.49 0 219.34 0ZM276.63 0.8L276.63 0.8Q271.83 0.8 268.13-0.98 264.43-2.75 262.36-5.9 260.28-9.05 260.28-13.1L260.28-13.1 260.28-36.45Q260.28-37.6 261.03-38.33 261.78-39.05 262.88-39.05L262.88-39.05Q264.03-39.05 264.76-38.33 265.48-37.6 265.48-36.45L265.48-36.45 265.48-13.1Q265.48-10.4 266.91-8.33 268.33-6.25 270.86-5.08 273.38-3.9 276.63-3.9L276.63-3.9Q279.78-3.9 282.21-5.08 284.63-6.25 286.01-8.33 287.38-10.4 287.38-13.1L287.38-13.1 287.38-36.45Q287.38-37.6 288.13-38.33 288.88-39.05 289.98-39.05L289.98-39.05Q291.13-39.05 291.83-38.33 292.53-37.6 292.53-36.45L292.53-36.45 292.53-13.1Q292.53-9.05 290.51-5.9 288.48-2.75 284.88-0.98 281.28 0.8 276.63 0.8ZM318.13 0L305.13 0Q304.03 0 303.28-0.75 302.53-1.5 302.53-2.6L302.53-2.6 302.53-36.45Q302.53-37.6 303.28-38.33 304.03-39.05 305.13-39.05L305.13-39.05 317.08-39.05Q320.48-39.05 323.06-37.73 325.63-36.4 327.11-34.05 328.58-31.7 328.58-28.65L328.58-28.65Q328.58-26.2 327.26-24.23 325.93-22.25 323.63-21.1L323.63-21.1Q326.93-20.3 328.93-17.95 330.93-15.6 330.93-11.8L330.93-11.8Q330.93-8.35 329.31-5.7 327.68-3.05 324.78-1.53 321.88 0 318.13 0L318.13 0ZM307.73-18.2L307.73-4.8 318.13-4.8Q320.43-4.8 322.18-5.6 323.93-6.4 324.93-7.95 325.93-9.5 325.93-11.8L325.93-11.8Q325.93-13.95 324.93-15.35 323.93-16.75 322.18-17.48 320.43-18.2 318.13-18.2L318.13-18.2 307.73-18.2ZM307.73-34.25L307.73-23 317.08-23Q319.93-23 321.76-24.4 323.58-25.8 323.58-28.65L323.58-28.65Q323.58-31.5 321.76-32.88 319.93-34.25 317.08-34.25L317.08-34.25 307.73-34.25Z" opacity="1" transform="matrix(1,0,0,1,0,0)" fill="#ffffff" class="undefined-text-0" data-fill-palette-color="primary" id="text-0"></path></svg></g></svg></g><g transform="matrix(1,0,0,1,85.28697415682959,60.52101136257708)"><svg viewBox="0 0 224.9460516863408 30.258645117349282" height="30.258645117349282" width="224.9460516863408"><g transform="matrix(1,0,0,1,0,0)"><svg width="224.9460516863408" viewBox="1.4500000476837158 -35.5 335.6099853515625 45.150001525878906" height="30.258645117349282" data-palette-color="#00d1cd"><path d="M3.8-12.2L3.8-12.2Q4.75-11.45 7.08-10.15 9.4-8.85 11.53-8.85 13.65-8.85 13.65-10.5L13.65-10.5Q13.65-11.25 13.05-11.83 12.45-12.4 10.85-13.15 9.25-13.9 8.45-14.33 7.65-14.75 6.33-15.73 5-16.7 4.3-17.75L4.3-17.75Q2.3-20.6 2.3-25 2.3-29.4 5.58-32.43 8.85-35.45 14.15-35.45L14.15-35.45Q17.75-35.45 20.8-34.68 23.85-33.9 23.95-32.65L23.95-32.65Q23.95-32.5 23.95-32.35L23.95-32.35Q23.95-30.6 22.85-27.93 21.75-25.25 21.3-24.95L21.3-24.95Q18.1-26.6 15.58-26.6 13.05-26.6 13.05-24.8L13.05-24.8Q13.05-23.7 14.9-22.85L14.9-22.85Q15.3-22.65 16.05-22.3 16.8-21.95 17.78-21.48 18.75-21 19.88-20.28 21-19.55 22.3-18.35L22.3-18.35Q24.95-15.85 24.95-11.75L24.95-11.75Q24.95-6.4 22-3 19.05 0.4 12.9 0.5L12.9 0.5Q9.9 0.5 7.48 0 5.05-0.5 3.25-1.95 1.45-3.4 1.45-5.45 1.45-7.5 2.2-9.53 2.95-11.55 3.8-12.2ZM35.55-2L27.05-24.75Q27.05-25.3 31.62-25.3 36.2-25.3 36.35-24.8L36.35-24.8 39.95-13 43.4-24.9Q43.6-25.3 46.5-25.3L46.5-25.3Q53.15-25.3 52.85-24.65L52.85-24.65 41.1 8.8Q41.05 9.1 38.37 9.1 35.7 9.1 33.4 8.93 31.1 8.75 31.2 8.5L31.2 8.5 35.55-2ZM66.09-16.35L66.09-0.3Q66.09 0.05 62.5 0.05L62.5 0.05Q57.5-0.1 57.5-0.5L57.5-0.5 57.5-16.7 56.2-16.7Q54.9-16.7 54.5-18.9L54.5-18.9Q54.4-19.55 54.4-20.2L54.4-20.2Q54.4-21.75 55-23.3L55-23.3Q55.9-25.5 57.8-25.5 59.7-25.5 61.2-24.6 62.7-23.7 63.2-22.8L63.2-22.8Q66.34-25.5 70.7-25.5 75.05-25.5 77-23.15 78.95-20.8 78.95-15.45L78.95-15.45 78.95-0.45Q78.95 0.15 74.67 0.15 70.4 0.15 70.4-0.45L70.4-0.45 70.4-14.9Q70.4-17.4 68.65-17.4L68.65-17.4Q68.15-17.4 67.25-16.98 66.34-16.55 66.09-16.35L66.09-16.35ZM102.09-1.35L102.09-1.35Q98.94 0.5 93.99 0.5 89.04 0.5 85.64-2.88 82.24-6.25 82.24-12.23 82.24-18.2 85.52-21.85 88.79-25.5 93.79-25.5 98.79-25.5 101.52-22.95 104.24-20.4 104.24-16.75L104.24-16.75Q104.24-8.65 94.94-8.65L94.94-8.65 91.49-8.65Q91.49-7.15 92.32-6.58 93.14-6 94.74-6L94.74-6Q98.24-6 101.39-7.6L101.39-7.6Q101.44-7.65 101.84-6.9L101.84-6.9Q103.04-4.75 103.04-3.28 103.04-1.8 102.09-1.35ZM95.84-15.8L95.84-15.8Q95.84-17.9 93.79-17.9L93.79-17.9Q92.84-17.9 92.17-17.32 91.49-16.75 91.49-15.65L91.49-15.65 91.49-14.1 94.19-14.1Q95.84-14.1 95.84-15.8ZM118.44-14L118.44-0.05Q118.44 0.3 113.89 0.3L113.89 0.3Q109.34 0.2 109.34-0.1L109.34-0.1 109.34-16.7 107.99-16.7Q107.19-16.7 106.72-17.68 106.24-18.65 106.24-20.1L106.24-20.1Q106.24-25.5 109.44-25.5L109.44-25.5Q111.69-25.5 113.19-24.13 114.69-22.75 114.69-21L114.69-21Q115.74-23.05 117.52-24.28 119.29-25.5 121.14-25.5L121.14-25.5Q124.04-25.5 124.64-24L124.64-24Q124.79-23.6 124.79-22.83 124.79-22.05 124.32-20.05 123.84-18.05 123.34-17.15 122.84-16.25 122.74-16.25 122.64-16.25 121.82-16.63 120.99-17 120.34-17L120.34-17Q118.44-17 118.44-14L118.44-14ZM136.49 0L136.49 0Q131.64 0 128.99-3.13 126.34-6.25 126.34-12.38 126.34-18.5 129.81-21.98 133.29-25.45 139.06-25.45 144.84-25.45 148.59-22.9L148.59-22.9 148.59 2Q148.59 5.7 145.59 7.68 142.59 9.65 137.89 9.65 133.19 9.65 129.49 8.45L129.49 8.45Q128.99 7.25 128.99 6.3L128.99 6.3Q128.99 3.1 130.04 1.6L130.04 1.6Q133.39 3.05 137.19 3.05L137.19 3.05Q139.94 3.05 139.94 1.1L139.94 1.1 139.94-0.4Q137.79 0 136.49 0ZM138.79-17.3L138.79-17.3Q135.44-17.3 135.44-12.25L135.44-12.25Q135.44-9.1 136.74-8.15L136.74-8.15Q137.59-7.5 138.44-7.5 139.29-7.5 139.94-7.65L139.94-7.65 139.94-17.15Q139.34-17.3 138.79-17.3ZM171.99-1.35L171.99-1.35Q168.84 0.5 163.89 0.5 158.94 0.5 155.53-2.88 152.14-6.25 152.14-12.23 152.14-18.2 155.41-21.85 158.69-25.5 163.69-25.5 168.69-25.5 171.41-22.95 174.14-20.4 174.14-16.75L174.14-16.75Q174.14-8.65 164.84-8.65L164.84-8.65 161.39-8.65Q161.39-7.15 162.21-6.58 163.03-6 164.64-6L164.64-6Q168.14-6 171.29-7.6L171.29-7.6Q171.34-7.65 171.74-6.9L171.74-6.9Q172.94-4.75 172.94-3.28 172.94-1.8 171.99-1.35ZM165.74-15.8L165.74-15.8Q165.74-17.9 163.69-17.9L163.69-17.9Q162.74-17.9 162.06-17.32 161.39-16.75 161.39-15.65L161.39-15.65 161.39-14.1 164.09-14.1Q165.74-14.1 165.74-15.8ZM210.93-8.4L212.73-24.75Q212.73-25.2 215.48-25.2L215.48-25.2Q221.68-25.2 221.58-24.8L221.58-24.8 216.68-0.5Q216.53 0.3 211.13 0.3 205.73 0.3 205.58-0.5L205.58-0.5 203.53-11.7 200.98-0.5Q200.83 0.25 195.26 0.25 189.68 0.25 189.53-0.65L189.53-0.65 185.08-25Q184.93-25.3 189.38-25.3L189.38-25.3Q193.78-25.25 193.78-25.1L193.78-25.1 196.08-8.2 200.23-24.9Q200.33-25.2 203.53-25.2 206.73-25.2 206.83-24.9L206.83-24.9 210.93-8.4ZM233.53-24.85L233.53-0.3Q233.53 0.1 228.95 0.1 224.38 0.1 224.38-0.25L224.38-0.25 224.38-24.8Q224.38-25.15 228.95-25.15 233.53-25.15 233.53-24.85L233.53-24.85ZM233.53-35.15L233.53-27.8Q233.53-27.45 228.95-27.45 224.38-27.45 224.38-27.75L224.38-27.75 224.38-34.95Q224.38-35.45 228.95-35.45 233.53-35.45 233.53-35.15L233.53-35.15ZM249.53-18L249.53-0.3Q249.53 0.3 245.33 0.3L245.33 0.3Q240.33 0.1 240.33-0.35L240.33-0.35 240.33-18.05 237.78-18.05Q236.78-18.05 236.78-21.5L236.78-21.5Q236.78-22.4 236.95-23.7 237.13-25 237.68-25L237.68-25 240.33-25 240.33-29.4Q240.33-30.4 244.55-30.4 248.78-30.4 248.78-29.6L248.78-29.6 248.78-26.4 248.83-25 253.08-25Q253.93-25 253.93-21.5 253.93-18 253.08-18L253.08-18 249.53-18ZM264.77-16.55L264.77-0.35Q264.77 0.1 260.6 0.1 256.42 0.1 256.42-0.6L256.42-0.6 256.42-34.85Q256.42-35.2 257.97-35.35 259.52-35.5 260.57-35.5L260.57-35.5Q264.77-35.5 264.77-34.6L264.77-34.6 264.77-24.6Q267.57-25.45 269.02-25.45L269.02-25.45Q272.82-25.45 275.02-23.43 277.22-21.4 277.22-15.9L277.22-15.9 277.22-0.4Q277.22 0.05 273.32 0.05L273.32 0.05Q268.92-0.1 268.92-0.45L268.92-0.45 268.92-15.15Q268.92-17.6 267.32-17.6L267.32-17.6Q266.22-17.6 264.77-16.55L264.77-16.55ZM290.62-9.95L290.62-24.7Q290.62-25.25 294.92-25.25 299.22-25.25 299.22-24.7L299.22-24.7 299.22-10.1Q299.22-7.6 300.82-7.6L300.82-7.6Q302.02-7.6 303.52-8.65L303.52-8.65 303.52-24.7Q303.52-25.2 307.77-25.2 312.02-25.2 312.02-24.7L312.02-24.7 312.02-8.3 313.32-8.3Q315.02-8.3 315.02-5.05L315.02-5.05Q315.02-3.4 314.32-1.7L314.32-1.7Q313.32 0.5 311.62 0.5L311.62 0.5Q308.27 0.5 306.67-2.25L306.67-2.25 306.62-2.2Q303.57 0.5 300.07 0.5L300.07 0.5Q295.22 0.5 292.92-1.93 290.62-4.35 290.62-9.95L290.62-9.95ZM319.12-9L319.12-9Q323.17-6.55 325.51-6.55L325.51-6.55Q327.01-6.55 327.01-7.6L327.01-7.6Q327.01-8.35 324.42-9.55L324.42-9.55Q318.17-12.1 318.17-17.9L318.17-17.9Q318.17-21.6 320.87-23.55 323.56-25.5 327.34-25.5 331.12-25.5 333.74-24.7 336.37-23.9 336.37-22.6L336.37-22.6Q336.37-21.5 335.29-19.7 334.21-17.9 333.81-17.75L333.81-17.75Q331.67-18.95 329.17-18.95L329.17-18.95Q327.81-18.95 327.81-18L327.81-18Q327.81-17.4 328.34-16.98 328.87-16.55 330.26-15.93 331.67-15.3 332.59-14.8 333.51-14.3 334.67-13.4L334.67-13.4Q337.06-11.5 337.06-8.45L337.06-8.45Q337.06-4.45 334.42-1.98 331.76 0.5 326.42 0.5L326.42 0.5Q322.87 0.5 319.96-0.7 317.06-1.9 317.06-4L317.06-4Q317.06-5.4 317.74-6.95 318.42-8.5 319.12-9Z" opacity="1" transform="matrix(1,0,0,1,0,0)" fill="#ffffff" class="undefined-text-1" data-fill-palette-color="secondary" id="text-1"></path></svg></g></svg></g></svg></g></svg></g><g transform="matrix(1,0,0,1,85.82071335096073,0)"><svg viewBox="0 0 223.87857329807852 223.87857329807852" height="223.87857329807852" width="223.87857329807852"><g><svg></svg></g><g id="icon-0"><svg viewBox="0 0 223.87857329807852 223.87857329807852" height="223.87857329807852" width="223.87857329807852"><g><path d="M0 111.939c0-61.822 50.117-111.939 111.939-111.939 61.822 0 111.939 50.117 111.94 111.939 0 61.822-50.117 111.939-111.94 111.94-61.822 0-111.939-50.117-111.939-111.94zM111.939 219.463c59.384 0 107.524-48.14 107.524-107.524 0-59.384-48.14-107.524-107.524-107.524-59.384 0-107.524 48.14-107.524 107.524 0 59.384 48.14 107.524 107.524 107.524z" data-fill-palette-color="accent" fill="#ffffff" stroke="transparent"></path></g><g transform="matrix(1,0,0,1,60.049864684901266,44.55041508496306)"><svg viewBox="0 0 103.77884392827599 134.7777431281524" height="134.7777431281524" width="103.77884392827599"><g><svg xmlns="http://www.w3.org/2000/svg" xmlns:xlink="http://www.w3.org/1999/xlink" version="1.1" x="0" y="0" viewBox="15.299999237060547 5.000002384185791 69.29998779296875 90" enable-background="new 0 0 100 100" xml:space="preserve" height="134.7777431281524" width="103.77884392827599" class="icon-s-0" data-fill-palette-color="accent" id="s-0"><path d="M35.6 86.9c0 4.5-3.6 8.1-8.1 8.1-4.5 0-8.1-3.6-8.1-8.1 0-4.5 3.6-8.1 8.1-8.1 1.4 0 2.7 0.4 3.9 1 0.1-0.1 0.2-0.2 0.4-0.1 0.1 0.1 0.2 0.2 0.1 0.4l0 0C34.1 81.5 35.6 84 35.6 86.9zM27.5 45.9c0-3.3-2.7-6.1-6.1-6.1-3.3 0-6.1 2.7-6.1 6.1 0 3.3 2.7 6.1 6.1 6.1C24.8 52 27.5 49.2 27.5 45.9zM34.8 19.1c0.8 0 1.5-0.1 2.2-0.4 0 0 0 0 0 0.1l0 0.1c0 0.1 0.1 0.2 0.3 0.2 0 0 0.1 0 0.1 0 0.1-0.1 0.2-0.2 0.2-0.4l0-0.1c0 0 0 0 0 0 2.6-1.1 4.4-3.6 4.4-6.5 0-3.9-3.2-7.1-7.1-7.1s-7.1 3.2-7.1 7.1S30.9 19.1 34.8 19.1zM79.6 5.8c-2.8 0-5.1 2.3-5.1 5.1 0 1.5 0.7 2.8 1.7 3.8-0.1 0-0.2 0-0.3 0.1l-0.1 0.1c-0.1 0.1-0.1 0.3 0 0.4 0.1 0 0.1 0.1 0.2 0.1 0.1 0 0.2 0 0.2-0.1l0.1-0.1c0.1-0.1 0.1-0.2 0-0.3 0.9 0.7 2 1.2 3.2 1.2 2.8 0 5.1-2.3 5.1-5.1S82.4 5.8 79.6 5.8zM78.6 33.2c-2.2 0-4 1.8-4 4 0 2.2 1.8 4 4 4s4-1.8 4-4C82.7 35 80.8 33.2 78.6 33.2zM65.4 62.9c-1.5 0-2.9 0.5-4.1 1.3l-0.1-0.1C61.1 64 61 64 60.8 64.1c-0.1 0.1-0.1 0.3-0.1 0.4l0.1 0.1c-1.6 1.3-2.5 3.2-2.5 5.4 0 3.9 3.2 7.1 7.1 7.1 3.9 0 7.1-3.2 7.1-7.1S69.3 62.9 65.4 62.9zM59.1 47.5c0-6.1-5-11.1-11.1-11.1-1.3 0-2.6 0.2-3.7 0.7 0 0-0.1 0-0.1 0 0 0-0.1 0-0.1 0.1-4.2 1.6-7.1 5.6-7.1 10.4 0 4.2 2.4 7.9 5.9 9.8 0 0.1 0 0.2 0.2 0.3 0 0 0.1 0 0.1 0 0.1 0 0.1 0 0.2-0.1 1.5 0.7 3.1 1.1 4.8 1.1C54.2 58.6 59.1 53.6 59.1 47.5zM35.5 46.8c-0.2 0-0.3 0.1-0.3 0.3 0 0.2 0.1 0.3 0.3 0.3l0.1 0c0 0 0 0 0 0 0.2 0 0.3-0.1 0.3-0.3 0-0.2-0.1-0.3-0.3-0.3L35.5 46.8zM30.2 46.7c-0.1 0-0.3 0.1-0.3 0.3 0 0.2 0.1 0.3 0.3 0.3l0.1 0c0 0 0 0 0 0 0.2 0 0.3-0.1 0.3-0.3 0-0.2-0.1-0.3-0.3-0.3L30.2 46.7zM32.1 47.3c0.2 0 0.3-0.1 0.3-0.3 0-0.2-0.1-0.3-0.3-0.3l-0.1 0c-0.2 0-0.3 0.1-0.3 0.3 0 0.2 0.1 0.3 0.3 0.3L32.1 47.3C32.1 47.3 32.1 47.3 32.1 47.3zM33.8 47.3l0.1 0c0 0 0 0 0 0 0.2 0 0.3-0.1 0.3-0.3 0-0.2-0.1-0.3-0.3-0.3l-0.1 0c-0.1 0-0.3 0.1-0.3 0.3C33.5 47.2 33.6 47.3 33.8 47.3zM28.5 46.6c-0.2 0-0.3 0.1-0.3 0.3 0 0.2 0.1 0.3 0.3 0.3l0.1 0c0 0 0 0 0 0 0.2 0 0.3-0.1 0.3-0.3 0-0.2-0.1-0.3-0.3-0.3L28.5 46.6zM38.3 66.7c-0.1-0.1-0.3 0-0.4 0.1l-0.1 0.1c-0.1 0.1 0 0.3 0.1 0.4 0 0 0.1 0 0.1 0 0.1 0 0.2-0.1 0.3-0.2l0.1-0.1C38.5 66.9 38.4 66.7 38.3 66.7zM39.9 63.4c-0.1-0.1-0.3 0-0.4 0.1l-0.1 0.1c-0.1 0.1 0 0.3 0.1 0.4 0 0 0.1 0 0.1 0 0.1 0 0.2-0.1 0.3-0.2l0.1-0.1C40.1 63.7 40.1 63.5 39.9 63.4zM39.1 65.1c-0.1-0.1-0.3 0-0.4 0.1l-0.1 0.1c-0.1 0.1 0 0.3 0.1 0.4 0 0 0.1 0 0.1 0 0.1 0 0.2-0.1 0.3-0.2l0.1-0.1C39.3 65.3 39.3 65.1 39.1 65.1zM41.6 60.2c-0.1-0.1-0.3 0-0.4 0.1l-0.1 0.1c-0.1 0.1 0 0.3 0.1 0.4 0 0 0.1 0 0.1 0 0.1 0 0.2-0.1 0.3-0.2l0.1-0.1C41.8 60.4 41.7 60.2 41.6 60.2zM42.4 58.5c-0.1-0.1-0.3 0-0.4 0.1L42 58.8c-0.1 0.1 0 0.3 0.1 0.4 0 0 0.1 0 0.1 0 0.1 0 0.2-0.1 0.3-0.2l0.1-0.1C42.6 58.8 42.5 58.6 42.4 58.5zM40.8 61.8c-0.1-0.1-0.3 0-0.4 0.1L40.3 62c-0.1 0.1 0 0.3 0.1 0.4 0 0 0.1 0 0.1 0 0.1 0 0.2-0.1 0.3-0.2l0.1-0.1C41 62 40.9 61.9 40.8 61.8zM37.5 68.3c-0.1-0.1-0.3 0-0.4 0.1L37 68.6c-0.1 0.1 0 0.3 0.1 0.4 0 0 0.1 0 0.1 0 0.1 0 0.2-0.1 0.3-0.2l0.1-0.1C37.7 68.5 37.6 68.4 37.5 68.3zM33.4 76.4c-0.1-0.1-0.3 0-0.4 0.1l-0.1 0.1c-0.1 0.1 0 0.3 0.1 0.4 0 0 0.1 0 0.1 0 0.1 0 0.2-0.1 0.3-0.2l0.1-0.1C33.6 76.7 33.5 76.5 33.4 76.4zM36.7 69.9c-0.1-0.1-0.3 0-0.4 0.1l-0.1 0.1c-0.1 0.1 0 0.3 0.1 0.4 0 0 0.1 0 0.1 0 0.1 0 0.2-0.1 0.3-0.2l0.1-0.1C36.8 70.2 36.8 70 36.7 69.9zM33.9 75.4c0 0 0.1 0 0.1 0 0.1 0 0.2-0.1 0.3-0.2l0.1-0.1c0.1-0.1 0-0.3-0.1-0.4-0.1-0.1-0.3 0-0.4 0.1l-0.1 0.1C33.7 75.2 33.7 75.4 33.9 75.4zM32.2 78.7c0 0 0.1 0 0.1 0 0.1 0 0.2-0.1 0.3-0.2l0.1-0.1c0.1-0.1 0-0.3-0.1-0.4-0.1-0.1-0.3 0-0.4 0.1l-0.1 0.1C32 78.4 32.1 78.6 32.2 78.7zM34.6 73.3l-0.1 0.1c-0.1 0.1 0 0.3 0.1 0.4 0 0 0.1 0 0.1 0 0.1 0 0.2-0.1 0.3-0.2l0.1-0.1c0.1-0.1 0-0.3-0.1-0.4C34.9 73.1 34.7 73.2 34.6 73.3zM35.8 71.6c-0.1-0.1-0.3 0-0.4 0.1l-0.1 0.1c-0.1 0.1 0 0.3 0.1 0.4 0 0 0.1 0 0.1 0 0.1 0 0.2-0.1 0.3-0.2l0.1-0.1C36 71.8 36 71.6 35.8 71.6zM58.7 61.3c-0.1 0.1-0.1 0.3-0.1 0.4l0.1 0.1c0.1 0.1 0.1 0.1 0.2 0.1 0.1 0 0.1 0 0.2-0.1 0.1-0.1 0.1-0.3 0.1-0.4l-0.1-0.1C59 61.2 58.8 61.2 58.7 61.3zM58 59.9c-0.1-0.1-0.3-0.1-0.4-0.1-0.1 0.1-0.1 0.3 0 0.4l0.1 0.1c0.1 0.1 0.1 0.1 0.2 0.1 0.1 0 0.1 0 0.2-0.1 0.1-0.1 0.1-0.3 0-0.4L58 59.9zM60.1 62.7c-0.1-0.1-0.3-0.1-0.4-0.1-0.1 0.1-0.1 0.3-0.1 0.4l0.1 0.1c0.1 0.1 0.1 0.1 0.2 0.1 0.1 0 0.1 0 0.2-0.1 0.1-0.1 0.1-0.3 0.1-0.4L60.1 62.7zM56.9 58.5c-0.1-0.1-0.3-0.1-0.4-0.1-0.1 0.1-0.1 0.3-0.1 0.4l0.1 0.1c0.1 0.1 0.1 0.1 0.2 0.1 0.1 0 0.1 0 0.2-0.1 0.1-0.1 0.1-0.3 0.1-0.4L56.9 58.5zM55.8 57.1c-0.1-0.1-0.3-0.1-0.4-0.1-0.1 0.1-0.1 0.3-0.1 0.4l0.1 0.1c0.1 0.1 0.1 0.1 0.2 0.1 0.1 0 0.1 0 0.2-0.1 0.1-0.1 0.1-0.3 0.1-0.4L55.8 57.1zM70 40.4C70.1 40.4 70.1 40.4 70 40.4l0.2-0.1c0.1 0 0.2-0.2 0.2-0.4 0-0.1-0.2-0.2-0.4-0.2l-0.1 0c-0.1 0-0.2 0.2-0.2 0.4C69.8 40.3 69.9 40.4 70 40.4zM68.1 40.8c0 0.1 0.1 0.2 0.3 0.2 0 0 0.1 0 0.1 0l0.1 0c0.1 0 0.2-0.2 0.2-0.4 0-0.1-0.2-0.2-0.4-0.2l-0.1 0C68.1 40.5 68 40.6 68.1 40.8zM66.6 41.5C66.7 41.5 66.7 41.5 66.6 41.5l0.2-0.1c0.1 0 0.2-0.2 0.2-0.4 0-0.1-0.2-0.2-0.4-0.2l-0.1 0c-0.1 0-0.2 0.2-0.2 0.4C66.4 41.5 66.5 41.5 66.6 41.5zM61.5 43.2C61.6 43.2 61.6 43.2 61.5 43.2l0.2-0.1c0.1 0 0.2-0.2 0.2-0.4 0-0.1-0.2-0.2-0.4-0.2l-0.1 0c-0.1 0-0.2 0.2-0.2 0.4C61.3 43.2 61.4 43.2 61.5 43.2zM73.5 38.7l-0.1 0c-0.1 0-0.2 0.2-0.2 0.4 0 0.1 0.1 0.2 0.3 0.2 0 0 0.1 0 0.1 0l0.1 0c0.1 0 0.2-0.2 0.2-0.4C73.8 38.7 73.6 38.6 73.5 38.7zM71.5 39.6c0 0.1 0.1 0.2 0.3 0.2 0 0 0.1 0 0.1 0l0.1 0c0.1 0 0.2-0.2 0.2-0.4 0-0.1-0.2-0.2-0.4-0.2l-0.1 0C71.5 39.3 71.4 39.5 71.5 39.6zM63.3 42.1l-0.1 0c-0.1 0-0.2 0.2-0.2 0.4 0 0.1 0.1 0.2 0.3 0.2 0 0 0.1 0 0.1 0l0.1 0c0.1 0 0.2-0.2 0.2-0.4C63.6 42.1 63.4 42 63.3 42.1zM59.9 43.2l-0.1 0c-0.1 0-0.2 0.2-0.2 0.4 0 0.1 0.1 0.2 0.3 0.2 0 0 0.1 0 0.1 0l0.1 0c0.1 0 0.2-0.2 0.2-0.4C60.2 43.3 60 43.2 59.9 43.2zM64.7 41.9c0 0.1 0.1 0.2 0.3 0.2 0 0 0.1 0 0.1 0l0.1 0c0.1 0 0.2-0.2 0.2-0.4 0-0.1-0.2-0.2-0.4-0.2l-0.1 0C64.7 41.6 64.6 41.8 64.7 41.9zM75.1 16.5l0.1-0.1c0.1-0.1 0.1-0.3 0-0.4-0.1-0.1-0.3-0.1-0.4 0l-0.1 0.1c-0.1 0.1-0.1 0.3 0 0.4 0.1 0 0.1 0.1 0.2 0.1C74.9 16.6 75 16.6 75.1 16.5zM63.2 30.2c0.1 0 0.2 0 0.2-0.1l0.1-0.1c0.1-0.1 0.1-0.3 0-0.4-0.1-0.1-0.3-0.1-0.4 0L63 29.7c-0.1 0.1-0.1 0.3 0 0.4C63 30.1 63.1 30.2 63.2 30.2zM73.6 17.4l-0.1 0.1c-0.1 0.1-0.1 0.3 0 0.4 0.1 0 0.1 0.1 0.2 0.1 0.1 0 0.2 0 0.2-0.1l0.1-0.1c0.1-0.1 0.1-0.3 0-0.4S73.7 17.3 73.6 17.4zM56.2 38.3c0.1 0 0.2 0 0.2-0.1l0.1-0.1c0.1-0.1 0.1-0.3 0-0.4-0.1-0.1-0.3-0.1-0.4 0l-0.1 0.1c-0.1 0.1-0.1 0.3 0 0.4C56 38.3 56.1 38.3 56.2 38.3zM59.7 34.2c0.1 0 0.2 0 0.2-0.1L60 34c0.1-0.1 0.1-0.3 0-0.4-0.1-0.1-0.3-0.1-0.4 0l-0.1 0.1c-0.1 0.1-0.1 0.3 0 0.4C59.5 34.2 59.6 34.2 59.7 34.2zM57.3 37c0.1 0 0.2 0 0.2-0.1l0.1-0.1c0.1-0.1 0.1-0.3 0-0.4-0.1-0.1-0.3-0.1-0.4 0l-0.1 0.1c-0.1 0.1-0.1 0.3 0 0.4C57.2 36.9 57.3 37 57.3 37zM60.8 32.9c0.1 0 0.2 0 0.2-0.1l0.1-0.1c0.1-0.1 0.1-0.3 0-0.4-0.1-0.1-0.3-0.1-0.4 0l-0.1 0.1c-0.1 0.1-0.1 0.3 0 0.4C60.7 32.9 60.8 32.9 60.8 32.9zM69 23.4c0.1 0 0.2 0 0.2-0.1l0.1-0.1c0.1-0.1 0.1-0.3 0-0.4-0.1-0.1-0.3-0.1-0.4 0l-0.1 0.1c-0.1 0.1-0.1 0.3 0 0.4C68.9 23.4 69 23.4 69 23.4zM62 31.5c0.1 0 0.2 0 0.2-0.1l0.1-0.1c0.1-0.1 0.1-0.3 0-0.4-0.1-0.1-0.3-0.1-0.4 0l-0.1 0.1c-0.1 0.1-0.1 0.3 0 0.4C61.9 31.5 61.9 31.5 62 31.5zM64.3 28.8c0.1 0 0.2 0 0.2-0.1l0.1-0.1c0.1-0.1 0.1-0.3 0-0.4-0.1-0.1-0.3-0.1-0.4 0l-0.1 0.1c-0.1 0.1-0.1 0.3 0 0.4C64.2 28.8 64.3 28.8 64.3 28.8zM67.9 24.7c0.1 0 0.2 0 0.2-0.1l0.1-0.1c0.1-0.1 0.1-0.3 0-0.4-0.1-0.1-0.3-0.1-0.4 0l-0.1 0.1c-0.1 0.1-0.1 0.3 0 0.4C67.7 24.7 67.8 24.7 67.9 24.7zM66.7 26.1c0.1 0 0.2 0 0.2-0.1l0.1-0.1c0.1-0.1 0.1-0.3 0-0.4-0.1-0.1-0.3-0.1-0.4 0l-0.1 0.1c-0.1 0.1-0.1 0.3 0 0.4C66.6 26.1 66.6 26.1 66.7 26.1zM72.4 18.7l-0.1 0.1c-0.1 0.1-0.1 0.3 0 0.4 0.1 0 0.1 0.1 0.2 0.1 0.1 0 0.2 0 0.2-0.1l0.1-0.1c0.1-0.1 0.1-0.3 0-0.4C72.7 18.6 72.5 18.6 72.4 18.7zM70.2 22c0.1 0 0.2 0 0.2-0.1l0.1-0.1c0.1-0.1 0.1-0.3 0-0.4-0.1-0.1-0.3-0.1-0.4 0L70 21.6c-0.1 0.1-0.1 0.3 0 0.4C70.1 22 70.1 22 70.2 22zM65.5 27.5c0.1 0 0.2 0 0.2-0.1l0.1-0.1c0.1-0.1 0.1-0.3 0-0.4-0.1-0.1-0.3-0.1-0.4 0L65.3 27c-0.1 0.1-0.1 0.3 0 0.4C65.4 27.4 65.4 27.5 65.5 27.5zM71.4 20.7c0.1 0 0.2 0 0.2-0.1l0.1-0.1c0.1-0.1 0.1-0.3 0-0.4-0.1-0.1-0.3-0.1-0.4 0l-0.1 0.1c-0.1 0.1-0.1 0.3 0 0.4C71.2 20.7 71.3 20.7 71.4 20.7zM58.5 35.6c0.1 0 0.2 0 0.2-0.1l0.1-0.1c0.1-0.1 0.1-0.3 0-0.4s-0.3-0.1-0.4 0l-0.1 0.1c-0.1 0.1-0.1 0.3 0 0.4C58.4 35.6 58.4 35.6 58.5 35.6zM41 28.6c-0.1 0.1-0.2 0.2-0.2 0.4l0 0.1c0 0.1 0.1 0.2 0.3 0.2 0 0 0.1 0 0.1 0 0.1-0.1 0.2-0.2 0.2-0.4l0-0.1C41.3 28.6 41.1 28.6 41 28.6zM41.6 30.3c-0.1 0.1-0.2 0.2-0.2 0.4l0 0.1c0 0.1 0.1 0.2 0.3 0.2 0 0 0.1 0 0.1 0 0.1-0.1 0.2-0.2 0.2-0.4l0-0.1C41.9 30.3 41.8 30.2 41.6 30.3zM42.1 32.5c0 0.1 0.1 0.2 0.3 0.2 0 0 0.1 0 0.1 0 0.1-0.1 0.2-0.2 0.2-0.4l0-0.1c-0.1-0.1-0.2-0.2-0.4-0.2-0.1 0.1-0.2 0.2-0.2 0.4L42.1 32.5zM43.4 35.8c0 0.1 0.1 0.2 0.3 0.2 0 0 0.1 0 0.1 0 0.1-0.1 0.2-0.2 0.2-0.4l0-0.1c-0.1-0.1-0.2-0.2-0.4-0.2-0.1 0.1-0.2 0.2-0.2 0.4L43.4 35.8zM42.8 34.2c0 0.1 0.1 0.2 0.3 0.2 0 0 0.1 0 0.1 0 0.1-0.1 0.2-0.2 0.2-0.4l0-0.1c-0.1-0.1-0.2-0.2-0.4-0.2-0.1 0.1-0.2 0.2-0.2 0.4L42.8 34.2zM39.7 25.2c-0.1 0.1-0.2 0.2-0.2 0.4l0 0.1c0 0.1 0.1 0.2 0.3 0.2 0 0 0.1 0 0.1 0 0.1-0.1 0.2-0.2 0.2-0.4l0-0.1C40 25.3 39.9 25.2 39.7 25.2zM37.9 20.2c-0.1 0.1-0.2 0.2-0.2 0.4l0 0.1c0 0.1 0.1 0.2 0.3 0.2 0 0 0.1 0 0.1 0 0.1-0.1 0.2-0.2 0.2-0.4l0-0.1C38.2 20.2 38 20.1 37.9 20.2zM39.1 23.5c-0.1 0.1-0.2 0.2-0.2 0.4l0 0.1c0 0.1 0.1 0.2 0.3 0.2 0 0 0.1 0 0.1 0 0.1-0.1 0.2-0.2 0.2-0.4l0-0.1C39.4 23.6 39.3 23.5 39.1 23.5zM38.5 21.9c-0.1 0.1-0.2 0.2-0.2 0.4l0 0.1c0 0.1 0.1 0.2 0.3 0.2 0 0 0.1 0 0.1 0 0.1-0.1 0.2-0.2 0.2-0.4l0-0.1C38.8 21.9 38.6 21.8 38.5 21.9zM40.4 26.9c-0.1 0.1-0.2 0.2-0.2 0.4l0 0.1c0 0.1 0.1 0.2 0.3 0.2 0 0 0.1 0 0.1 0 0.1-0.1 0.2-0.2 0.2-0.4l0-0.1C40.7 26.9 40.5 26.9 40.4 26.9z" fill="#ffffff" data-fill-palette-color="accent"></path></svg></g></svg></g></svg></g></svg></g><g></g></svg></g><defs></defs></svg><rect width="289.45985464587295" height="247.2" fill="none" stroke="none" visibility="hidden"></rect></g></svg></g></svg>